<svg width="16" height="16" viewBox="0 0 16 16" fill="none" xmlns="http://www.w3.org/2000/svg">
<path d="M15.2686 0.0591918C15.4353 -0.0319382 15.6366 -0.0166339 15.79 0.0967569C15.9433 0.210843 16.022 0.404234 15.9946 0.599016L14.1613 13.4685C14.1393 13.6209 14.0533 13.7565 13.9267 13.8372C13.8473 13.8873 13.7573 13.913 13.6667 13.913C13.612 13.913 13.5573 13.9033 13.5053 13.8852L6.51667 11.3927L13.3887 2.75344L4.50801 10.6769L0.338029 9.18959C0.149362 9.12211 0.0166963 8.94403 0.00136298 8.73533C-0.0133036 8.52733 0.0913627 8.32977 0.268695 8.23307L15.2686 0.0591918Z" fill="white"/>
<path d="M5.83325 15.4784V12.252L8.54458 13.2189L6.73592 15.7872C6.63992 15.9236 6.48925 16.0001 6.33325 16.0001C6.28125 16.0001 6.22858 15.9918 6.17725 15.9744C5.97192 15.9034 5.83325 15.7038 5.83325 15.4784Z" fill="white"/>
</svg>
