<?xml version="1.0"?>
<svg xmlns="http://www.w3.org/2000/svg" xmlns:xlink="http://www.w3.org/1999/xlink" xmlns:svgjs="http://svgjs.com/svgjs" version="1.1" width="512" height="512" x="0" y="0" viewBox="0 0 433.633 433.633" style="enable-background:new 0 0 512 512" xml:space="preserve" class=""><g>
<g xmlns="http://www.w3.org/2000/svg">
	<path style="" d="M369.894,153.078c-35.004,0-63.739,28.735-63.739,63.739s28.735,63.739,63.739,63.739   s63.739-28.735,63.739-63.739S404.898,153.078,369.894,153.078z" fill="#dadada" data-original="#4dcfe0" class=""/>
	<path style="" d="M216.816,153.078c-35.004,0-63.739,28.735-63.739,63.739s28.735,63.739,63.739,63.739   s63.739-28.735,63.739-63.739S251.82,153.078,216.816,153.078z" fill="#dadada" data-original="#4dcfe0" class=""/>
	<path style="" d="M63.739,153.078C28.735,153.078,0,181.812,0,216.816s28.735,63.739,63.739,63.739   s63.739-28.735,63.739-63.739S98.743,153.078,63.739,153.078z" fill="#dadada" data-original="#4dcfe0" class=""/>
</g>
<g xmlns="http://www.w3.org/2000/svg">
</g>
<g xmlns="http://www.w3.org/2000/svg">
</g>
<g xmlns="http://www.w3.org/2000/svg">
</g>
<g xmlns="http://www.w3.org/2000/svg">
</g>
<g xmlns="http://www.w3.org/2000/svg">
</g>
<g xmlns="http://www.w3.org/2000/svg">
</g>
<g xmlns="http://www.w3.org/2000/svg">
</g>
<g xmlns="http://www.w3.org/2000/svg">
</g>
<g xmlns="http://www.w3.org/2000/svg">
</g>
<g xmlns="http://www.w3.org/2000/svg">
</g>
<g xmlns="http://www.w3.org/2000/svg">
</g>
<g xmlns="http://www.w3.org/2000/svg">
</g>
<g xmlns="http://www.w3.org/2000/svg">
</g>
<g xmlns="http://www.w3.org/2000/svg">
</g>
<g xmlns="http://www.w3.org/2000/svg">
</g>
</g></svg>
